<mxfile host="65bd71144e">
    <diagram id="zlZ_LEf6YYu2zMTMCz1H" name="Page-1">
        <mxGraphModel dx="1515" dy="434" grid="1" gridSize="10" guides="1" tooltips="1" connect="1" arrows="1" fold="1" page="1" pageScale="1" pageWidth="827" pageHeight="1169" math="0" shadow="0">
            <root>
                <mxCell id="0"/>
                <mxCell id="1" parent="0"/>
                <mxCell id="29" style="edgeStyle=orthogonalEdgeStyle;rounded=0;orthogonalLoop=1;jettySize=auto;html=1;exitX=1;exitY=0.5;exitDx=0;exitDy=0;fontFamily=Georgia;endArrow=classicThin;endFill=1;strokeWidth=2;strokeColor=#B33B3B;" edge="1" parent="1" source="30">
                    <mxGeometry relative="1" as="geometry">
                        <mxPoint x="330" y="140" as="targetPoint"/>
                    </mxGeometry>
                </mxCell>
                <mxCell id="2" value="" style="whiteSpace=wrap;html=1;fontFamily=Georgia;fillColor=#E6E6E6;" vertex="1" parent="1">
                    <mxGeometry x="30" y="30" width="270" height="210" as="geometry"/>
                </mxCell>
                <mxCell id="5" value="" style="endArrow=classic;html=1;entryX=0;entryY=0.5;entryDx=0;entryDy=0;strokeWidth=2;fontFamily=Georgia;strokeColor=#549FFF;" edge="1" parent="1" target="7">
                    <mxGeometry width="50" height="50" relative="1" as="geometry">
                        <mxPoint x="-50" y="80" as="sourcePoint"/>
                        <mxPoint x="90" y="80" as="targetPoint"/>
                    </mxGeometry>
                </mxCell>
                <mxCell id="11" style="edgeStyle=orthogonalEdgeStyle;rounded=0;orthogonalLoop=1;jettySize=auto;html=1;exitX=1;exitY=0.5;exitDx=0;exitDy=0;entryX=0;entryY=0.5;entryDx=0;entryDy=0;strokeWidth=2;fontFamily=Georgia;" edge="1" parent="1" source="7" target="8">
                    <mxGeometry relative="1" as="geometry"/>
                </mxCell>
                <mxCell id="7" value="" style="rounded=1;whiteSpace=wrap;html=1;fontFamily=Georgia;fillColor=#d5e8d4;strokeColor=#82b366;" vertex="1" parent="1">
                    <mxGeometry x="50" y="50" width="100" height="60" as="geometry"/>
                </mxCell>
                <mxCell id="26" style="edgeStyle=orthogonalEdgeStyle;rounded=0;orthogonalLoop=1;jettySize=auto;html=1;exitX=0.75;exitY=1;exitDx=0;exitDy=0;fontFamily=Georgia;endArrow=classicThin;endFill=1;strokeWidth=1;strokeColor=#655573;" edge="1" parent="1" source="8">
                    <mxGeometry relative="1" as="geometry">
                        <mxPoint x="255.23809523809518" y="130" as="targetPoint"/>
                    </mxGeometry>
                </mxCell>
                <mxCell id="8" value="" style="rounded=1;whiteSpace=wrap;html=1;fontFamily=Georgia;fillColor=#ffe6cc;strokeColor=#d79b00;" vertex="1" parent="1">
                    <mxGeometry x="180" y="50" width="100" height="60" as="geometry"/>
                </mxCell>
                <mxCell id="9" value="Static&lt;br&gt;Instrumentation" style="text;html=1;align=center;verticalAlign=middle;resizable=0;points=[];autosize=1;strokeColor=none;fontFamily=Georgia;" vertex="1" parent="1">
                    <mxGeometry x="55" y="50" width="90" height="30" as="geometry"/>
                </mxCell>
                <mxCell id="10" value="Fuzzing" style="text;html=1;align=center;verticalAlign=middle;resizable=0;points=[];autosize=1;strokeColor=none;fontFamily=Georgia;" vertex="1" parent="1">
                    <mxGeometry x="205" y="50" width="50" height="20" as="geometry"/>
                </mxCell>
                <mxCell id="12" value="&lt;font style=&quot;font-size: 10px&quot; color=&quot;#0411cc&quot;&gt;&lt;b&gt;Non-instrumented&lt;br&gt;Binary&lt;/b&gt;&lt;/font&gt;" style="text;html=1;align=center;verticalAlign=middle;resizable=0;points=[];autosize=1;strokeColor=none;fontFamily=Georgia;" vertex="1" parent="1">
                    <mxGeometry x="-58" y="168" width="90" height="40" as="geometry"/>
                </mxCell>
                <mxCell id="13" value="&lt;font style=&quot;font-size: 10px&quot; color=&quot;#549fff&quot;&gt;&lt;b&gt;Source Code&lt;/b&gt;&lt;/font&gt;" style="text;html=1;align=center;verticalAlign=middle;resizable=0;points=[];autosize=1;strokeColor=none;fontFamily=Georgia;" vertex="1" parent="1">
                    <mxGeometry x="-50" y="60" width="70" height="20" as="geometry"/>
                </mxCell>
                <mxCell id="25" style="edgeStyle=orthogonalEdgeStyle;rounded=0;orthogonalLoop=1;jettySize=auto;html=1;exitX=0.75;exitY=0;exitDx=0;exitDy=0;fontFamily=Georgia;endArrow=classicThin;endFill=1;strokeWidth=1;strokeColor=#655573;" edge="1" parent="1" source="16">
                    <mxGeometry relative="1" as="geometry">
                        <mxPoint x="255.23809523809518" y="150" as="targetPoint"/>
                    </mxGeometry>
                </mxCell>
                <mxCell id="16" value="" style="rounded=1;whiteSpace=wrap;html=1;fontFamily=Georgia;fillColor=#ffe6cc;strokeColor=#d79b00;" vertex="1" parent="1">
                    <mxGeometry x="180" y="170" width="100" height="60" as="geometry"/>
                </mxCell>
                <mxCell id="17" value="Fuzzing" style="text;html=1;align=center;verticalAlign=middle;resizable=0;points=[];autosize=1;strokeColor=none;fontFamily=Georgia;" vertex="1" parent="1">
                    <mxGeometry x="205" y="170" width="50" height="20" as="geometry"/>
                </mxCell>
                <mxCell id="20" value="" style="endArrow=classic;html=1;strokeWidth=2;fontFamily=Georgia;entryX=0;entryY=0.5;entryDx=0;entryDy=0;strokeColor=#0411CC;" edge="1" parent="1" target="18">
                    <mxGeometry width="50" height="50" relative="1" as="geometry">
                        <mxPoint x="-50" y="205" as="sourcePoint"/>
                        <mxPoint x="170" y="204" as="targetPoint"/>
                    </mxGeometry>
                </mxCell>
                <mxCell id="21" style="edgeStyle=orthogonalEdgeStyle;rounded=0;orthogonalLoop=1;jettySize=auto;html=1;exitX=0;exitY=0.5;exitDx=0;exitDy=0;entryX=1;entryY=0.5;entryDx=0;entryDy=0;fontFamily=Georgia;strokeWidth=1;endArrow=none;endFill=0;dashed=1;dashPattern=1 1;" edge="1" parent="1" source="2" target="2">
                    <mxGeometry relative="1" as="geometry">
                        <Array as="points">
                            <mxPoint x="250" y="130"/>
                            <mxPoint x="250" y="130"/>
                        </Array>
                    </mxGeometry>
                </mxCell>
                <mxCell id="22" style="edgeStyle=orthogonalEdgeStyle;rounded=0;orthogonalLoop=1;jettySize=auto;html=1;exitX=0;exitY=0.5;exitDx=0;exitDy=0;entryX=1;entryY=0.55;entryDx=0;entryDy=0;entryPerimeter=0;dashed=1;dashPattern=1 1;fontFamily=Georgia;endArrow=none;endFill=0;strokeWidth=1;" edge="1" parent="1" source="2" target="2">
                    <mxGeometry relative="1" as="geometry">
                        <Array as="points">
                            <mxPoint x="30" y="150"/>
                        </Array>
                    </mxGeometry>
                </mxCell>
                <mxCell id="27" value="" style="endArrow=classic;html=1;strokeWidth=2;fontFamily=Georgia;strokeColor=#655573;" edge="1" parent="1">
                    <mxGeometry width="50" height="50" relative="1" as="geometry">
                        <mxPoint x="-50" y="140" as="sourcePoint"/>
                        <mxPoint x="30" y="140" as="targetPoint"/>
                    </mxGeometry>
                </mxCell>
                <mxCell id="28" value="&lt;font style=&quot;font-size: 10px&quot; color=&quot;#655573&quot;&gt;&lt;b&gt;Seed files&lt;/b&gt;&lt;/font&gt;" style="text;html=1;align=center;verticalAlign=middle;resizable=0;points=[];autosize=1;strokeColor=none;fontFamily=Georgia;" vertex="1" parent="1">
                    <mxGeometry x="-45" y="120" width="60" height="20" as="geometry"/>
                </mxCell>
                <mxCell id="30" value="" style="rounded=0;whiteSpace=wrap;html=1;fontFamily=Georgia;strokeColor=none;fillColor=#D0CAE6;" vertex="1" parent="1">
                    <mxGeometry x="170" y="130" width="129" height="20" as="geometry"/>
                </mxCell>
                <mxCell id="31" value="&lt;font style=&quot;font-size: 10px&quot;&gt;Queue of entries&lt;/font&gt;" style="text;html=1;align=center;verticalAlign=middle;resizable=0;points=[];autosize=1;strokeColor=none;fontFamily=Georgia;" vertex="1" parent="1">
                    <mxGeometry x="190" y="128" width="80" height="20" as="geometry"/>
                </mxCell>
                <mxCell id="32" style="edgeStyle=orthogonalEdgeStyle;rounded=0;orthogonalLoop=1;jettySize=auto;html=1;fontFamily=Georgia;endArrow=classicThin;endFill=1;strokeWidth=1;entryX=0.25;entryY=1;entryDx=0;entryDy=0;strokeColor=#655573;" edge="1" parent="1" target="8">
                    <mxGeometry relative="1" as="geometry">
                        <mxPoint x="205" y="150" as="targetPoint"/>
                        <mxPoint x="205" y="130" as="sourcePoint"/>
                    </mxGeometry>
                </mxCell>
                <mxCell id="33" style="edgeStyle=orthogonalEdgeStyle;rounded=0;orthogonalLoop=1;jettySize=auto;html=1;fontFamily=Georgia;endArrow=classicThin;endFill=1;strokeWidth=1;entryX=0.25;entryY=0;entryDx=0;entryDy=0;strokeColor=#655573;" edge="1" parent="1" target="16">
                    <mxGeometry relative="1" as="geometry">
                        <mxPoint x="265.2380952380952" y="140.00000000000003" as="targetPoint"/>
                        <mxPoint x="205" y="150" as="sourcePoint"/>
                    </mxGeometry>
                </mxCell>
                <mxCell id="34" value="&lt;b&gt;&lt;font style=&quot;font-size: 13px&quot;&gt;AFL&lt;/font&gt;&lt;/b&gt;" style="text;html=1;align=center;verticalAlign=middle;resizable=0;points=[];autosize=1;strokeColor=none;fontFamily=Georgia;" vertex="1" parent="1">
                    <mxGeometry x="145" y="30" width="40" height="20" as="geometry"/>
                </mxCell>
                <mxCell id="18" value="" style="rounded=1;whiteSpace=wrap;html=1;fontFamily=Georgia;strokeColor=#82b366;fillColor=#BBCCBA;" vertex="1" parent="1">
                    <mxGeometry x="190" y="190" width="80" height="30" as="geometry"/>
                </mxCell>
                <mxCell id="19" value="&lt;font style=&quot;font-size: 9px ; line-height: 100%&quot;&gt;&lt;b&gt;Dynamic&lt;br&gt;Instrumentation&lt;/b&gt;&lt;/font&gt;" style="text;html=1;align=center;verticalAlign=middle;resizable=0;points=[];autosize=1;strokeColor=none;fontFamily=Georgia;" vertex="1" parent="1">
                    <mxGeometry x="190" y="188" width="80" height="30" as="geometry"/>
                </mxCell>
                <mxCell id="37" value="&lt;font style=&quot;font-size: 10px&quot; color=&quot;#b33b3b&quot;&gt;&lt;b&gt;Crashes&lt;br&gt;Hangs&lt;br&gt;Etc.&lt;/b&gt;&lt;/font&gt;" style="text;html=1;align=center;verticalAlign=middle;resizable=0;points=[];autosize=1;strokeColor=none;fontFamily=Georgia;" vertex="1" parent="1">
                    <mxGeometry x="330" y="115" width="50" height="50" as="geometry"/>
                </mxCell>
                <mxCell id="39" value="" style="rounded=0;whiteSpace=wrap;html=1;fontFamily=Georgia;strokeColor=none;fillColor=#D0CAE6;gradientDirection=west;gradientColor=#E6E6E6;" vertex="1" parent="1">
                    <mxGeometry x="31" y="130" width="139" height="20" as="geometry"/>
                </mxCell>
            </root>
        </mxGraphModel>
    </diagram>
</mxfile>